<svg width="40" height="40" viewBox="0 0 40 40" fill="none" xmlns="http://www.w3.org/2000/svg">
<path fill-rule="evenodd" clip-rule="evenodd" d="M17.9435 5.95927C11.3743 6.91306 6.26348 12.3677 5.83976 19.0943H13.0917C13.3678 14.322 15.0625 9.74997 17.9435 5.95927ZM22.0565 5.95927C24.9375 9.74997 26.6322 14.322 26.9083 19.0943H34.1602C33.7365 12.3677 28.6257 6.91306 22.0565 5.95927ZM25.0937 19.0943C24.7993 14.391 23.0145 9.90329 20 6.28308C16.9855 9.90329 15.2007 14.391 14.9063 19.0943H25.0937ZM14.9063 20.9057H25.0937C24.7993 25.609 23.0145 30.0967 20 33.7169C16.9855 30.0967 15.2007 25.609 14.9063 20.9057ZM13.0917 20.9057H5.83976C6.26348 27.6323 11.3743 33.0869 17.9435 34.0407C15.0625 30.25 13.3678 25.678 13.0917 20.9057ZM22.0565 34.0407C24.9375 30.25 26.6322 25.678 26.9083 20.9057H34.1602C33.7365 27.6323 28.6257 33.0869 22.0565 34.0407ZM20 36C28.8366 36 36 28.8366 36 20C36 11.1634 28.8366 4 20 4C11.1634 4 4 11.1634 4 20C4 28.8366 11.1634 36 20 36Z" fill="black"/>
</svg>
